<svg width="100" height="100" viewBox="0 0 100 100" fill="none" xmlns="http://www.w3.org/2000/svg">
<path d="M37.0331 18.345C41.8381 17.1097 46.9442 16 50 16C53.0558 16 58.1619 17.1097 62.9669 18.345C67.8827 19.6012 72.8382 21.0877 75.7522 21.9882C76.9705 22.3686 78.0507 23.0662 78.8684 24.0011C79.6863 24.9358 80.2086 26.0698 80.3755 27.2727C83.015 46.0202 76.8903 59.9143 69.4591 69.1058C66.308 73.0379 62.5505 76.5003 58.3124 79.3778C56.847 80.3734 55.2943 81.249 53.6712 81.995C52.4312 82.5477 51.0982 83 50 83C48.9018 83 47.5731 82.5477 46.3288 81.995C44.7057 81.2492 43.153 80.3736 41.6876 79.3778C37.4495 76.5003 33.6921 73.0378 30.5409 69.1058C23.1097 59.9143 16.985 46.0202 19.6245 27.2727C19.7914 26.0698 20.3137 24.9358 21.1316 24.0011C21.9493 23.0662 23.0295 22.3686 24.2479 21.9882C28.4779 20.6766 32.741 19.4619 37.0331 18.345Z" fill="#0F006C"/>
<path d="M39.5429 23.925C43.4179 22.911 47.5357 22 50 22C52.4644 22 56.5821 22.911 60.4571 23.925C64.4214 24.9562 68.4179 26.1765 70.7679 26.9156C71.7503 27.228 72.6214 27.8006 73.2809 28.5681C73.9405 29.3354 74.3617 30.2663 74.4964 31.2537C76.625 46.6435 71.6856 58.049 65.6929 65.5944C63.1516 68.8221 60.1214 71.6645 56.7035 74.0265C55.5218 74.844 54.2695 75.5626 52.9606 76.175C51.9606 76.6287 50.8856 77 50 77C49.1144 77 48.0429 76.6287 47.0394 76.175C45.7305 75.5628 44.4782 74.844 43.2965 74.0265C39.8787 71.6644 36.8486 68.822 34.3071 65.5944C28.3144 58.049 23.375 46.6435 25.5036 31.2537C25.6383 30.2663 26.0595 29.3354 26.7191 28.5681C27.3786 27.8006 28.2497 27.228 29.2321 26.9156C32.6436 25.839 36.0815 24.8419 39.5429 23.925Z" fill="white"/>
<path d="M52 18H48V81H52V18Z" fill="#0F006C"/>
<path d="M33 49H67V55H33V49Z" fill="#0F006C"/>
<path d="M28 34H72V39H28V34Z" fill="#0F006C"/>
<path d="M77 30H100V34H77V30Z" fill="#0F006C"/>
<path d="M77 39H98V43H77V39Z" fill="#0F006C"/>
<path d="M75 49H93V55H75V49Z" fill="#0F006C"/>
<path d="M23 30H0V34H23V30Z" fill="#0F006C"/>
<path d="M23 39H2V43H23V39Z" fill="#0F006C"/>
<path d="M25 49H7V55H25V49Z" fill="#0F006C"/>
</svg>
